<?xml version="1.0" encoding="UTF-8"?>
<!DOCTYPE svg PUBLIC "-//W3C//DTD SVG 1.1//EN" "http://www.w3.org/Graphics/SVG/1.1/DTD/svg11.dtd">
<svg version="1.1" xmlns="http://www.w3.org/2000/svg" xmlns:xlink="http://www.w3.org/1999/xlink" x="0" y="0" width="305.972" height="115.131" viewBox="0, 0, 305.972, 115.131">
  <defs>
    <clipPath id="Clip_1">
      <path d="M305.972,0 L305.972,115.131 L-0,115.131 L-0,0 L305.972,0 z"/>
    </clipPath>
  </defs>
  <g id="Layer_1">
    <g>
      <path d="M32.149,96.728 L27.567,96.728 L27.567,79.526 L32.149,79.526 z" fill="#603D94"/>
      <path d="M145.729,96.658 L141.145,96.658 L141.145,79.596 L145.729,79.596 z" fill="#603D94"/>
    </g>
    <g clip-path="url(#Clip_1)">
      <path d="M123.732,96.941 C123.098,96.941 122.533,96.87 121.899,96.799 C121.265,96.728 120.701,96.517 120.066,96.306 C119.431,96.023 118.727,95.741 118.092,95.248 C117.457,94.826 116.752,94.19 116.118,93.486 L118.586,90.524 C119.15,91.16 119.714,91.653 120.137,92.005 C120.63,92.288 121.053,92.569 121.475,92.711 C121.899,92.922 122.252,92.992 122.604,93.062 C122.957,93.133 123.309,93.133 123.662,93.133 C124.014,93.133 124.296,93.062 124.577,93.062 C124.86,92.992 125.141,92.922 125.354,92.851 C125.565,92.711 125.706,92.569 125.847,92.429 C125.918,92.288 125.988,92.075 125.988,91.864 C125.988,91.724 125.988,91.582 125.918,91.441 C125.847,91.3 125.706,91.16 125.565,91.018 C125.354,90.806 125.071,90.666 124.649,90.524 C124.226,90.384 123.732,90.243 123.098,90.031 C122.252,89.89 121.547,89.679 120.912,89.396 C120.278,89.186 119.784,88.903 119.291,88.622 C118.867,88.339 118.445,88.058 118.163,87.776 C117.88,87.422 117.669,87.071 117.457,86.718 C117.316,86.365 117.175,86.013 117.105,85.66 C117.034,85.237 116.964,84.884 116.964,84.462 C116.964,83.898 117.034,83.475 117.175,82.981 C117.387,82.558 117.598,82.134 117.88,81.783 C118.163,81.36 118.445,81.007 118.867,80.724 C119.291,80.442 119.714,80.16 120.207,79.949 C120.701,79.738 121.194,79.596 121.829,79.456 C122.393,79.385 122.957,79.315 123.59,79.315 C124.155,79.315 124.79,79.385 125.354,79.456 C125.918,79.526 126.482,79.667 127.046,79.879 C127.61,80.09 128.173,80.442 128.737,80.796 C129.301,81.147 129.866,81.641 130.43,82.205 L127.892,85.307 C127.61,84.955 127.257,84.673 126.834,84.391 C126.482,84.109 126.128,83.898 125.706,83.685 C125.354,83.475 124.931,83.334 124.577,83.262 C124.226,83.122 123.874,83.122 123.52,83.122 C123.309,83.122 123.026,83.122 122.816,83.192 C122.604,83.262 122.393,83.334 122.181,83.475 C122.039,83.616 121.899,83.756 121.758,83.898 C121.688,84.038 121.617,84.249 121.617,84.462 C121.617,84.602 121.688,84.813 121.758,84.955 C121.829,85.095 121.899,85.237 122.111,85.378 C122.322,85.519 122.604,85.66 123.026,85.801 C123.38,85.871 123.874,86.013 124.508,86.153 C125.706,86.365 126.692,86.718 127.469,87.071 C128.243,87.422 128.879,87.916 129.301,88.409 C129.794,88.832 130.077,89.396 130.288,89.96 C130.5,90.524 130.571,91.088 130.571,91.724 C130.571,92.217 130.5,92.711 130.359,93.133 C130.218,93.556 130.007,93.98 129.725,94.402 C129.443,94.755 129.09,95.107 128.667,95.459 C128.243,95.741 127.821,96.023 127.328,96.235 C126.764,96.447 126.2,96.658 125.635,96.728 C125.001,96.87 124.367,96.941 123.732,96.941" fill="#603D94"/>
      <path d="M99.127,93.626 L95.884,93.626 L94.615,96.729 L89.75,96.729 L97.152,79.597 L99.127,79.597 L99.127,86.013 L97.294,90.243 L99.127,90.243 z M102.299,93.626 L99.127,93.626 L99.127,90.243 L100.89,90.243 L99.127,86.013 L99.127,79.597 L101.031,79.597 L108.433,96.729 L103.639,96.729 z" fill="#603D94"/>
      <path d="M42.584,79.596 L49.775,79.596 C50.057,79.596 50.339,79.667 50.621,79.667 L50.621,83.545 C50.339,83.475 50.057,83.475 49.775,83.475 L47.237,83.475 L47.237,92.992 L49.775,92.992 C50.057,92.992 50.339,92.921 50.621,92.921 L50.621,96.799 L49.775,96.799 L42.584,96.799 z M50.621,79.667 C51.185,79.667 51.679,79.809 52.172,79.879 C52.948,80.09 53.653,80.373 54.358,80.654 C54.992,81.006 55.626,81.43 56.119,81.924 C56.683,82.417 57.107,82.982 57.53,83.615 C57.883,84.25 58.165,84.956 58.376,85.66 C58.588,86.435 58.728,87.211 58.728,88.058 C58.728,88.903 58.588,89.679 58.376,90.454 C58.165,91.23 57.883,91.935 57.53,92.569 C57.177,93.203 56.683,93.768 56.191,94.332 C55.626,94.826 55.063,95.319 54.358,95.671 C53.723,96.023 53.017,96.305 52.243,96.517 C51.749,96.658 51.185,96.728 50.621,96.799 L50.621,92.921 C50.973,92.851 51.256,92.711 51.538,92.639 C52.102,92.357 52.524,92.005 52.948,91.582 C53.3,91.16 53.581,90.666 53.794,90.031 C54.005,89.467 54.075,88.762 54.075,88.058 C54.075,87.352 53.935,86.647 53.723,86.084 C53.512,85.52 53.23,85.026 52.807,84.674 C52.454,84.25 51.961,83.969 51.466,83.756 C51.185,83.615 50.903,83.545 50.621,83.545 z" fill="#603D94"/>
      <path d="M185.915,96.728 L181.332,96.728 L181.332,79.667 L185.915,79.667 z" fill="#603D94"/>
      <path d="M156.233,79.667 L163.565,79.667 L163.565,83.475 L160.817,83.475 L160.817,87.211 L163.565,87.211 L163.565,92.217 L162.65,91.018 L160.817,91.018 L160.817,96.729 L156.233,96.729 z M163.565,79.667 L163.919,79.667 C164.905,79.667 165.892,79.809 166.739,80.019 C167.584,80.231 168.361,80.584 168.925,81.076 C169.558,81.571 170.052,82.135 170.405,82.84 C170.827,83.545 170.969,84.391 170.969,85.307 C170.969,85.871 170.899,86.435 170.686,86.929 C170.545,87.493 170.263,87.916 169.982,88.338 C169.63,88.762 169.276,89.114 168.783,89.467 C168.361,89.749 167.867,90.031 167.374,90.243 L172.237,96.729 L166.95,96.729 L163.565,92.217 L163.565,87.211 C163.988,87.211 164.341,87.211 164.694,87.14 C165.046,87.071 165.329,86.929 165.61,86.787 C165.822,86.647 166.033,86.435 166.174,86.224 C166.316,86.012 166.386,85.729 166.386,85.378 C166.386,85.096 166.316,84.814 166.246,84.602 C166.104,84.32 165.963,84.109 165.752,83.969 C165.54,83.827 165.258,83.686 164.905,83.615 C164.552,83.475 164.201,83.475 163.778,83.475 L163.565,83.475 z" fill="#603D94"/>
      <path d="M200.932,86.929 L200.932,96.729 L196.279,96.729 L196.279,79.525 L200.509,79.525 L205.092,86.647 L209.745,79.525 L213.905,79.525 L213.905,96.729 L209.322,96.729 L209.322,86.999 L205.092,93.415 z" fill="#603D94"/>
      <path d="M248.24,79.667 L255.431,79.667 L256.276,79.667 L256.276,83.545 C255.995,83.475 255.712,83.404 255.359,83.404 L252.822,83.404 L252.822,92.922 L255.359,92.922 C255.712,92.922 255.995,92.851 256.276,92.851 L256.276,96.658 C255.995,96.658 255.712,96.729 255.431,96.729 L248.24,96.729 z M256.276,79.667 C256.769,79.738 257.333,79.809 257.827,79.949 C258.533,80.09 259.237,80.373 259.942,80.725 C260.578,81.076 261.142,81.431 261.706,81.924 C262.27,82.418 262.693,82.982 263.044,83.615 C263.468,84.25 263.75,84.955 263.962,85.66 C264.172,86.435 264.244,87.211 264.244,88.057 C264.244,88.831 264.172,89.679 263.962,90.383 C263.75,91.159 263.468,91.864 263.115,92.499 C262.693,93.133 262.27,93.697 261.775,94.261 C261.212,94.755 260.648,95.178 259.942,95.53 C259.309,95.953 258.603,96.235 257.827,96.376 C257.333,96.517 256.769,96.658 256.276,96.658 L256.276,92.851 C256.559,92.782 256.91,92.64 257.193,92.569 C257.686,92.288 258.11,91.935 258.533,91.512 C258.885,91.088 259.168,90.595 259.378,89.96 C259.591,89.396 259.661,88.762 259.661,88.057 C259.661,87.28 259.591,86.647 259.309,86.084 C259.097,85.52 258.814,85.026 258.391,84.602 C258.039,84.25 257.616,83.969 257.052,83.756 C256.769,83.615 256.559,83.545 256.276,83.545 z" fill="#603D94"/>
      <path d="M224.198,79.667 L237.734,79.667 L237.734,83.475 L228.78,83.475 L228.78,86.224 L236.959,86.224 L236.959,89.96 L228.78,89.96 L228.78,92.922 L237.876,92.922 L237.876,96.729 L224.198,96.729 z" fill="#603D94"/>
      <path d="M304.288,96.658 L299.706,96.658 L299.706,79.596 L304.288,79.596 z" fill="#603D94"/>
      <path d="M274.325,79.667 L278.908,79.667 L278.908,86.224 L284.83,86.224 L284.83,79.667 L289.412,79.667 L289.412,96.729 L284.83,96.729 L284.83,89.889 L278.908,89.889 L278.908,96.729 L274.325,96.729 z" fill="#603D94"/>
      <path d="M79.527,79.526 L85.096,79.526 L78.118,88.902 L78.118,96.728 L73.535,96.728 L73.535,88.832 L66.625,79.526 L72.194,79.526 L75.861,84.532 z" fill="#603D94"/>
      <path d="M61.127,105.471 L68.388,105.471 L68.388,107.374 L63.241,107.374 L63.241,109.279 L67.894,109.279 L67.894,111.112 L63.241,111.112 L63.241,113.085 L68.458,113.085 L68.458,114.989 L61.127,114.989 z M55.133,107.374 L52.314,107.374 L52.314,105.471 L60.069,105.471 L60.069,107.374 L57.248,107.374 L57.248,114.989 L55.133,114.989 z M47.097,115.13 C46.744,115.13 46.391,115.13 46.039,115.06 C45.686,114.989 45.404,114.847 45.052,114.707 C44.769,114.566 44.488,114.354 44.205,114.142 C43.924,113.932 43.712,113.719 43.501,113.438 C43.359,113.156 43.218,112.803 43.077,112.451 C42.937,112.099 42.937,111.745 42.937,111.323 L42.937,105.471 L45.052,105.471 L45.052,111.252 C45.052,111.605 45.052,111.887 45.193,112.168 C45.333,112.381 45.475,112.591 45.686,112.732 C45.827,112.945 46.039,113.085 46.32,113.156 C46.533,113.226 46.814,113.296 47.097,113.296 C47.307,113.296 47.59,113.226 47.802,113.156 C48.084,113.085 48.295,112.945 48.506,112.803 C48.717,112.591 48.858,112.381 48.929,112.168 C49.07,111.958 49.141,111.675 49.141,111.323 L49.141,105.471 L51.256,105.471 L51.256,111.252 C51.256,111.675 51.186,112.099 51.114,112.451 C50.973,112.803 50.832,113.085 50.621,113.367 C50.48,113.65 50.199,113.932 49.986,114.142 C49.705,114.354 49.422,114.566 49.141,114.707 C48.788,114.847 48.506,114.989 48.154,115.06 C47.802,115.13 47.448,115.13 47.097,115.13 M36.943,107.374 L34.124,107.374 L34.124,105.471 L41.879,105.471 L41.879,107.374 L39.058,107.374 L39.058,114.989 L36.943,114.989 z M30.88,105.471 L32.925,105.471 L32.925,114.989 L30.88,114.989 z M24.747,107.374 L21.926,107.374 L21.926,105.471 L29.682,105.471 L29.682,107.374 L26.862,107.374 L26.862,114.989 L24.747,114.989 z M17.837,115.13 C17.556,115.13 17.204,115.13 16.85,115.06 C16.569,114.989 16.216,114.918 15.863,114.777 C15.512,114.636 15.158,114.496 14.806,114.214 C14.454,114.002 14.102,113.65 13.748,113.296 L15.018,111.816 C15.299,112.099 15.512,112.309 15.793,112.522 C16.005,112.663 16.286,112.803 16.499,112.945 C16.78,113.085 16.992,113.156 17.204,113.156 C17.414,113.226 17.626,113.226 17.837,113.226 L18.472,113.226 C18.683,113.156 18.824,113.085 18.965,113.015 C19.107,112.945 19.247,112.874 19.318,112.732 C19.388,112.591 19.459,112.451 19.459,112.309 C19.459,112.309 19.459,112.239 19.388,112.168 C19.388,112.099 19.388,112.027 19.318,112.027 C19.318,111.958 19.247,111.887 19.177,111.816 C19.107,111.745 18.965,111.675 18.824,111.605 C18.683,111.534 18.543,111.464 18.331,111.394 C18.12,111.323 17.837,111.252 17.556,111.181 C17.063,111.112 16.71,110.971 16.357,110.83 C16.005,110.688 15.722,110.548 15.441,110.407 C15.229,110.265 15.018,110.124 14.877,109.913 C14.665,109.772 14.594,109.561 14.454,109.42 C14.384,109.207 14.312,108.997 14.312,108.785 C14.242,108.573 14.242,108.362 14.242,108.15 C14.242,107.728 14.312,107.305 14.524,107.022 C14.665,106.67 14.948,106.388 15.229,106.105 C15.581,105.895 15.935,105.683 16.357,105.541 C16.78,105.401 17.273,105.33 17.767,105.33 C18.12,105.33 18.401,105.401 18.755,105.401 C19.037,105.471 19.318,105.541 19.671,105.683 C19.952,105.823 20.234,105.964 20.516,106.177 C20.869,106.318 21.152,106.599 21.433,106.881 L20.234,108.362 C20.094,108.15 19.882,108.01 19.671,107.869 C19.53,107.728 19.318,107.656 19.107,107.515 C18.895,107.446 18.614,107.374 18.401,107.305 C18.19,107.234 17.979,107.234 17.767,107.234 L17.204,107.234 C17.063,107.305 16.921,107.374 16.78,107.446 C16.639,107.515 16.499,107.586 16.428,107.728 C16.357,107.798 16.357,107.939 16.357,108.079 C16.357,108.221 16.357,108.292 16.428,108.432 C16.428,108.503 16.499,108.643 16.639,108.715 C16.78,108.856 16.992,108.925 17.273,108.997 C17.486,109.137 17.837,109.207 18.261,109.279 C18.683,109.349 19.107,109.489 19.388,109.561 C19.741,109.701 20.023,109.843 20.306,109.983 C20.516,110.124 20.728,110.265 20.869,110.476 C21.081,110.617 21.152,110.83 21.292,111.04 C21.363,111.181 21.433,111.394 21.503,111.605 C21.503,111.816 21.574,112.027 21.574,112.309 C21.574,112.663 21.433,113.085 21.292,113.438 C21.081,113.79 20.869,114.073 20.516,114.283 C20.165,114.566 19.812,114.777 19.318,114.918 C18.895,115.06 18.401,115.13 17.837,115.13 M4.09,105.471 L5.993,105.471 L10.575,111.605 L10.575,105.471 L12.62,105.471 L12.62,114.989 L10.858,114.989 L6.205,108.715 L6.205,114.989 L4.09,114.989 z M0,105.471 L2.115,105.471 L2.115,114.989 L0,114.989 z" fill="#B52C46"/>
      <path d="M77.06,110.054 C77.06,109.63 77.06,109.208 77.202,108.785 C77.342,108.362 77.483,107.939 77.694,107.585 C77.905,107.234 78.188,106.881 78.469,106.599 C78.753,106.247 79.104,106.035 79.456,105.824 C79.81,105.612 80.232,105.401 80.655,105.33 C81.078,105.189 81.501,105.119 81.924,105.119 L81.924,107.234 C81.571,107.234 81.149,107.304 80.796,107.445 C80.513,107.585 80.162,107.798 79.95,108.009 C79.668,108.291 79.527,108.572 79.386,108.926 C79.245,109.278 79.175,109.63 79.175,110.054 C79.175,110.477 79.245,110.829 79.386,111.181 C79.527,111.534 79.668,111.816 79.95,112.098 C80.162,112.38 80.513,112.592 80.796,112.732 C81.149,112.874 81.571,112.945 81.924,112.945 L81.924,114.989 C81.501,114.989 81.078,114.919 80.655,114.848 C80.232,114.707 79.81,114.566 79.456,114.355 C79.104,114.073 78.753,113.861 78.469,113.579 C78.188,113.226 77.905,112.945 77.694,112.522 C77.483,112.168 77.342,111.816 77.202,111.393 C77.06,110.971 77.06,110.547 77.06,110.054 M88.268,105.33 L95.249,105.33 L95.249,107.163 L90.384,107.163 L90.384,109.136 L94.756,109.136 L94.756,110.971 L90.384,110.971 L90.384,114.848 L88.268,114.848 z M81.924,105.119 C82.418,105.119 82.841,105.189 83.264,105.33 C83.687,105.401 84.039,105.612 84.463,105.824 C84.815,106.035 85.097,106.247 85.449,106.599 C85.73,106.881 86.014,107.234 86.224,107.585 C86.436,107.939 86.577,108.362 86.717,108.785 C86.789,109.208 86.859,109.63 86.859,110.054 C86.859,110.547 86.789,110.971 86.717,111.393 C86.577,111.816 86.436,112.168 86.224,112.522 C86.014,112.945 85.73,113.226 85.449,113.579 C85.097,113.861 84.815,114.073 84.463,114.355 C84.039,114.566 83.687,114.707 83.264,114.848 C82.841,114.919 82.418,114.989 81.924,114.989 L81.924,112.945 C82.347,112.945 82.7,112.874 83.052,112.732 C83.405,112.592 83.687,112.38 83.969,112.098 C84.179,111.816 84.392,111.534 84.533,111.181 C84.673,110.829 84.744,110.477 84.744,110.054 C84.744,109.63 84.673,109.278 84.533,108.926 C84.392,108.572 84.179,108.291 83.969,108.009 C83.687,107.798 83.405,107.585 83.052,107.445 C82.7,107.304 82.347,107.234 81.924,107.234 z" fill="#B52C46"/>
      <path d="M175.693,112.732 L173.718,112.732 L172.801,114.847 L170.545,114.847 L174.775,105.19 L175.693,105.19 L175.693,108.15 L174.493,110.9 L175.693,110.9 z M181.897,105.26 L183.729,105.26 L188.312,111.394 L188.312,105.26 L190.427,105.26 L190.427,114.847 L188.595,114.847 L183.942,108.573 L183.942,114.847 L181.897,114.847 z M196.702,105.33 L196.702,107.234 C196.49,107.164 196.35,107.164 196.138,107.164 L194.446,107.164 L194.446,112.945 L196.138,112.945 C196.35,112.945 196.49,112.945 196.702,112.874 L196.702,114.777 C196.49,114.777 196.35,114.847 196.208,114.847 L192.33,114.847 L192.33,105.26 L196.208,105.26 C196.35,105.26 196.49,105.26 196.702,105.33 M176.609,105.19 L180.84,114.847 L178.512,114.847 L177.667,112.732 L175.693,112.732 L175.693,110.9 L176.891,110.9 L175.693,108.15 L175.693,105.19 z M196.702,114.777 L196.702,112.874 C196.914,112.874 197.125,112.803 197.337,112.732 C197.619,112.591 197.972,112.381 198.182,112.099 C198.395,111.816 198.605,111.534 198.746,111.181 C198.887,110.83 198.887,110.407 198.887,109.983 C198.887,109.561 198.817,109.137 198.676,108.785 C198.535,108.432 198.395,108.15 198.113,107.938 C197.901,107.656 197.548,107.515 197.266,107.374 C197.054,107.305 196.844,107.234 196.702,107.234 L196.702,105.33 C197.266,105.33 197.83,105.471 198.323,105.683 C198.959,105.964 199.452,106.318 199.874,106.811 C200.228,107.234 200.51,107.728 200.721,108.221 C200.932,108.785 201.003,109.349 201.003,109.983 C201.003,110.688 200.932,111.323 200.65,111.958 C200.438,112.522 200.086,113.085 199.663,113.509 C199.452,113.719 199.17,113.86 198.959,114.073 C198.676,114.214 198.395,114.354 198.113,114.496 C197.83,114.566 197.548,114.636 197.195,114.707 C197.054,114.777 196.844,114.777 196.702,114.777" fill="#B52C46"/>
      <path d="M154.824,105.401 L162.085,105.401 L162.085,107.234 L156.868,107.234 L156.868,109.208 L161.592,109.208 L161.592,110.97 L156.868,110.97 L156.868,113.015 L162.156,113.015 L162.156,114.919 L154.824,114.919 z M149.395,115.06 C148.902,115.06 148.479,114.989 148.056,114.847 C147.632,114.777 147.209,114.566 146.856,114.355 C146.504,114.143 146.222,113.932 145.94,113.65 C145.658,113.368 145.376,113.015 145.165,112.662 C144.953,112.31 144.811,111.887 144.742,111.464 C144.602,111.041 144.53,110.617 144.53,110.123 C144.53,109.701 144.602,109.278 144.742,108.855 C144.811,108.432 144.953,108.009 145.165,107.657 C145.376,107.304 145.658,106.952 145.94,106.67 C146.222,106.388 146.575,106.106 146.927,105.894 C147.28,105.683 147.704,105.542 148.126,105.401 C148.549,105.26 148.971,105.189 149.465,105.189 C149.818,105.189 150.241,105.26 150.522,105.33 C150.876,105.33 151.228,105.47 151.509,105.612 C151.792,105.753 152.073,105.894 152.356,106.106 C152.709,106.318 152.92,106.528 153.202,106.881 L151.933,108.362 C151.722,108.15 151.58,107.939 151.369,107.798 C151.158,107.657 150.946,107.515 150.735,107.445 C150.594,107.304 150.382,107.234 150.171,107.163 C149.958,107.163 149.677,107.093 149.465,107.093 C149.043,107.093 148.69,107.163 148.338,107.375 C147.985,107.515 147.704,107.727 147.42,108.009 C147.209,108.221 146.998,108.572 146.856,108.926 C146.716,109.278 146.645,109.701 146.645,110.123 C146.645,110.547 146.716,110.97 146.856,111.323 C146.998,111.674 147.209,112.028 147.42,112.31 C147.704,112.592 147.985,112.804 148.338,112.945 C148.69,113.086 149.043,113.156 149.395,113.156 C149.607,113.156 149.818,113.156 150.03,113.086 C150.313,113.086 150.522,113.015 150.735,112.874 C150.946,112.804 151.158,112.662 151.369,112.521 C151.58,112.31 151.864,112.098 152.073,111.816 L153.415,113.226 C153.131,113.579 152.85,113.861 152.497,114.073 C152.215,114.283 151.864,114.496 151.58,114.637 C151.228,114.777 150.876,114.847 150.522,114.919 C150.171,114.989 149.748,115.06 149.395,115.06 M134.59,105.401 L136.492,105.401 L141.076,111.464 L141.076,105.401 L143.12,105.401 L143.12,114.919 L141.358,114.919 L136.705,108.644 L136.705,114.919 L134.59,114.919 z M125.988,105.401 L133.25,105.401 L133.25,107.234 L128.103,107.234 L128.103,109.208 L132.757,109.208 L132.757,110.97 L128.103,110.97 L128.103,113.015 L133.321,113.015 L133.321,114.919 L125.988,114.919 z M121.829,105.401 L123.944,105.401 L123.944,114.919 L121.829,114.919 z M116.328,115.06 C115.836,115.06 115.413,114.989 114.99,114.847 C114.567,114.777 114.144,114.566 113.791,114.355 C113.439,114.143 113.156,113.932 112.875,113.65 C112.593,113.368 112.311,113.015 112.099,112.662 C111.888,112.31 111.747,111.887 111.676,111.464 C111.535,111.041 111.465,110.617 111.465,110.123 C111.465,109.701 111.535,109.278 111.676,108.855 C111.747,108.432 111.888,108.009 112.099,107.657 C112.311,107.304 112.593,106.952 112.875,106.67 C113.156,106.388 113.51,106.106 113.862,105.894 C114.213,105.683 114.637,105.542 115.061,105.401 C115.483,105.26 115.906,105.189 116.4,105.189 C116.752,105.189 117.175,105.26 117.457,105.33 C117.809,105.33 118.163,105.47 118.445,105.612 C118.727,105.753 119.009,105.894 119.291,106.106 C119.573,106.318 119.855,106.528 120.137,106.881 L118.867,108.362 C118.656,108.15 118.515,107.939 118.304,107.798 C118.092,107.657 117.88,107.515 117.669,107.445 C117.528,107.304 117.316,107.234 117.105,107.163 C116.893,107.163 116.612,107.093 116.4,107.093 C115.977,107.093 115.624,107.163 115.271,107.375 C114.919,107.515 114.637,107.727 114.355,108.009 C114.144,108.221 113.932,108.572 113.791,108.926 C113.65,109.278 113.58,109.701 113.58,110.123 C113.58,110.547 113.65,110.97 113.791,111.323 C113.932,111.674 114.144,112.028 114.355,112.31 C114.637,112.592 114.919,112.804 115.271,112.945 C115.624,113.086 115.977,113.156 116.328,113.156 C116.541,113.156 116.752,113.156 116.964,113.086 C117.246,113.086 117.457,113.015 117.669,112.874 C117.88,112.804 118.092,112.662 118.304,112.521 C118.515,112.31 118.797,112.098 119.009,111.816 L120.348,113.226 C120.066,113.579 119.784,113.861 119.431,114.073 C119.15,114.283 118.797,114.496 118.515,114.637 C118.163,114.777 117.809,114.847 117.457,114.919 C117.105,114.989 116.682,115.06 116.328,115.06 M107.023,115.06 C106.741,115.06 106.389,114.989 106.036,114.989 C105.754,114.919 105.401,114.847 105.049,114.707 C104.698,114.566 104.343,114.355 103.992,114.143 C103.64,113.932 103.287,113.579 102.934,113.226 L104.203,111.674 C104.485,111.957 104.698,112.239 104.979,112.38 C105.19,112.592 105.472,112.732 105.684,112.874 C105.966,112.945 106.177,113.015 106.389,113.086 C106.6,113.156 106.812,113.156 107.023,113.156 C107.235,113.156 107.445,113.156 107.658,113.086 C107.869,113.086 108.009,113.015 108.151,112.945 C108.292,112.874 108.433,112.732 108.503,112.662 C108.574,112.521 108.645,112.38 108.645,112.239 L108.645,112.098 C108.574,112.028 108.574,111.957 108.503,111.887 C108.503,111.816 108.433,111.745 108.363,111.674 C108.292,111.605 108.151,111.534 108.009,111.464 C107.869,111.464 107.728,111.393 107.516,111.323 C107.305,111.252 107.023,111.181 106.741,111.111 C106.249,110.97 105.894,110.9 105.543,110.759 C105.19,110.617 104.907,110.477 104.626,110.336 C104.415,110.195 104.203,110.054 104.062,109.842 C103.85,109.701 103.78,109.49 103.64,109.278 C103.569,109.136 103.498,108.926 103.498,108.714 C103.428,108.503 103.428,108.221 103.428,108.009 C103.428,107.585 103.498,107.234 103.71,106.881 C103.85,106.528 104.133,106.247 104.415,106.034 C104.767,105.753 105.12,105.612 105.543,105.47 C105.966,105.33 106.458,105.26 106.952,105.26 C107.305,105.26 107.587,105.26 107.94,105.33 C108.222,105.401 108.503,105.47 108.856,105.612 C109.138,105.683 109.42,105.894 109.702,106.034 C110.054,106.247 110.337,106.457 110.618,106.74 L109.42,108.221 C109.279,108.079 109.067,107.939 108.856,107.798 C108.715,107.657 108.503,107.515 108.292,107.445 C108.081,107.304 107.8,107.234 107.587,107.163 C107.376,107.163 107.164,107.093 106.952,107.093 C106.741,107.093 106.6,107.093 106.389,107.163 C106.249,107.234 106.107,107.234 105.966,107.304 C105.825,107.375 105.754,107.515 105.613,107.585 C105.543,107.727 105.543,107.798 105.543,107.939 C105.543,108.079 105.543,108.221 105.613,108.291 C105.613,108.432 105.754,108.503 105.894,108.644 C105.966,108.714 106.177,108.855 106.458,108.926 C106.671,108.996 107.023,109.066 107.445,109.208 C107.869,109.278 108.292,109.349 108.574,109.49 C108.927,109.63 109.209,109.772 109.491,109.913 C109.702,110.054 109.914,110.195 110.054,110.406 C110.266,110.547 110.407,110.759 110.478,110.9 C110.547,111.111 110.618,111.323 110.689,111.534 C110.689,111.745 110.76,111.957 110.76,112.168 C110.76,112.592 110.618,112.945 110.478,113.296 C110.266,113.65 110.054,113.932 109.702,114.214 C109.351,114.496 108.996,114.637 108.503,114.777 C108.081,114.989 107.587,115.06 107.023,115.06" fill="#B52C46"/>
      <path d="M246.618,105.26 L248.45,105.26 L253.034,111.394 L253.034,105.26 L255.149,105.26 L255.149,114.777 L253.316,114.777 L248.662,108.573 L248.662,114.777 L246.618,114.777 z M236.535,105.26 L238.65,105.26 L238.65,109.066 L242.529,109.066 L242.529,105.26 L244.644,105.26 L244.644,114.777 L242.529,114.777 L242.529,110.9 L238.65,110.9 L238.65,114.777 L236.535,114.777 z M231.107,114.918 C230.684,114.918 230.261,114.848 229.837,114.777 C229.415,114.636 228.992,114.496 228.64,114.284 C228.286,114.073 227.935,113.861 227.653,113.509 C227.371,113.226 227.159,112.945 226.948,112.522 C226.735,112.168 226.595,111.816 226.454,111.394 C226.384,110.971 226.313,110.547 226.313,110.054 C226.313,109.63 226.384,109.137 226.454,108.714 C226.595,108.292 226.735,107.938 226.948,107.586 C227.159,107.234 227.371,106.881 227.653,106.599 C228.005,106.247 228.286,106.035 228.64,105.823 C229.063,105.612 229.415,105.401 229.837,105.33 C230.261,105.19 230.755,105.118 231.178,105.118 C231.601,105.118 231.952,105.118 232.306,105.19 C232.658,105.26 232.939,105.401 233.293,105.471 C233.575,105.612 233.857,105.823 234.139,106.035 C234.421,106.177 234.703,106.458 234.984,106.741 L233.716,108.292 C233.503,108.079 233.293,107.869 233.081,107.728 C232.939,107.586 232.729,107.445 232.517,107.305 C232.306,107.234 232.094,107.163 231.882,107.092 C231.671,107.022 231.46,107.022 231.178,107.022 C230.824,107.022 230.473,107.092 230.12,107.234 C229.768,107.374 229.486,107.586 229.204,107.869 C228.922,108.15 228.78,108.503 228.64,108.856 C228.499,109.207 228.428,109.63 228.428,110.054 C228.428,110.476 228.499,110.9 228.64,111.252 C228.78,111.604 228.922,111.958 229.204,112.239 C229.486,112.451 229.768,112.663 230.05,112.874 C230.401,113.016 230.755,113.085 231.178,113.085 C231.388,113.085 231.601,113.085 231.812,113.016 L232.446,112.803 C232.658,112.733 232.87,112.592 233.152,112.38 C233.363,112.239 233.575,112.027 233.857,111.745 L235.197,113.085 C234.844,113.439 234.561,113.72 234.28,114.003 C233.926,114.214 233.645,114.425 233.293,114.567 C233.011,114.707 232.658,114.777 232.306,114.848 C231.882,114.918 231.53,114.918 231.107,114.918 M218.205,105.26 L225.467,105.26 L225.467,107.163 L220.321,107.163 L220.321,109.066 L224.974,109.066 L224.974,110.9 L220.321,110.9 L220.321,112.945 L225.538,112.945 L225.538,114.777 L218.205,114.777 z M261.422,105.118 L261.422,107.163 C260.999,107.163 260.648,107.234 260.295,107.374 C259.942,107.515 259.661,107.728 259.449,108.01 C259.167,108.292 258.956,108.573 258.814,108.925 C258.674,109.279 258.603,109.63 258.603,110.054 C258.603,110.407 258.674,110.829 258.814,111.181 C258.956,111.534 259.167,111.816 259.449,112.098 C259.661,112.309 259.942,112.522 260.295,112.663 C260.648,112.803 260.999,112.874 261.422,112.874 L261.422,114.99 C260.999,114.99 260.577,114.918 260.154,114.777 C259.731,114.707 259.308,114.496 258.956,114.284 C258.603,114.073 258.251,113.79 257.969,113.509 C257.687,113.226 257.405,112.874 257.193,112.522 C256.982,112.168 256.84,111.745 256.7,111.322 C256.559,110.9 256.559,110.476 256.559,110.054 C256.559,109.561 256.559,109.137 256.7,108.714 C256.84,108.292 256.982,107.938 257.193,107.515 C257.405,107.163 257.687,106.881 257.969,106.528 C258.251,106.247 258.603,105.964 258.956,105.754 C259.308,105.541 259.731,105.401 260.154,105.26 C260.577,105.19 260.999,105.118 261.422,105.118 M212.212,107.163 L209.393,107.163 L209.393,105.26 L217.148,105.26 L217.148,107.163 L214.327,107.163 L214.327,114.777 L212.212,114.777 z M267.769,105.26 L269.884,105.26 L269.884,112.945 L274.748,112.945 L274.748,114.777 L267.769,114.777 z M261.422,114.99 L261.422,112.874 C261.846,112.874 262.199,112.803 262.55,112.663 C262.904,112.522 263.186,112.309 263.468,112.098 C263.679,111.816 263.891,111.534 264.031,111.181 C264.173,110.829 264.243,110.407 264.243,110.054 C264.243,109.63 264.173,109.279 264.031,108.925 C263.891,108.573 263.679,108.292 263.468,108.01 C263.186,107.728 262.904,107.515 262.55,107.374 C262.199,107.234 261.846,107.163 261.422,107.163 L261.422,105.118 C261.916,105.118 262.34,105.19 262.763,105.26 C263.186,105.401 263.537,105.541 263.891,105.754 C264.314,105.964 264.595,106.247 264.878,106.528 C265.231,106.881 265.442,107.163 265.653,107.515 C265.865,107.938 266.076,108.292 266.146,108.714 C266.288,109.137 266.359,109.561 266.359,110.054 C266.359,110.476 266.288,110.9 266.146,111.322 C266.076,111.745 265.865,112.168 265.653,112.522 C265.442,112.874 265.231,113.226 264.878,113.509 C264.595,113.79 264.314,114.073 263.891,114.284 C263.537,114.496 263.186,114.707 262.763,114.777 C262.34,114.918 261.916,114.99 261.422,114.99 M280.176,105.118 L280.176,107.163 C279.824,107.163 279.401,107.234 279.048,107.374 C278.767,107.515 278.414,107.728 278.203,108.01 C277.921,108.292 277.709,108.573 277.567,108.925 C277.427,109.279 277.357,109.63 277.357,110.054 C277.357,110.407 277.427,110.829 277.567,111.181 C277.709,111.534 277.921,111.816 278.203,112.098 C278.414,112.309 278.767,112.522 279.048,112.663 C279.401,112.803 279.824,112.874 280.176,112.874 L280.176,114.99 C279.754,114.99 279.331,114.918 278.908,114.777 C278.485,114.707 278.061,114.496 277.709,114.284 C277.357,114.073 277.003,113.79 276.722,113.509 C276.439,113.226 276.158,112.874 275.946,112.522 C275.735,112.168 275.594,111.745 275.452,111.322 C275.312,110.9 275.312,110.476 275.312,110.054 C275.312,109.561 275.312,109.137 275.452,108.714 C275.594,108.292 275.735,107.938 275.946,107.515 C276.158,107.163 276.439,106.881 276.722,106.528 C277.003,106.247 277.357,105.964 277.709,105.754 C278.061,105.541 278.485,105.401 278.908,105.26 C279.331,105.19 279.754,105.118 280.176,105.118 M303.02,105.26 L305.486,105.26 L301.61,111.112 L301.61,114.777 L299.495,114.777 L299.495,111.112 L295.616,105.26 L298.155,105.26 L300.552,109.279 z M290.893,114.918 C290.469,114.918 289.976,114.848 289.624,114.777 C289.201,114.707 288.778,114.496 288.425,114.354 C288.073,114.143 287.721,113.861 287.438,113.579 C287.157,113.297 286.874,113.016 286.662,112.663 C286.452,112.239 286.31,111.887 286.17,111.394 C286.029,110.971 285.958,110.476 285.958,109.983 C285.958,109.561 286.029,109.066 286.17,108.643 C286.24,108.22 286.452,107.869 286.662,107.515 C286.874,107.092 287.086,106.811 287.438,106.528 C287.721,106.247 288.073,105.964 288.425,105.754 C288.778,105.541 289.201,105.401 289.624,105.33 C290.047,105.19 290.469,105.118 290.963,105.118 C291.387,105.118 291.81,105.19 292.162,105.26 C292.514,105.26 292.867,105.401 293.149,105.471 C293.502,105.612 293.784,105.754 294.065,105.964 C294.348,106.177 294.629,106.458 294.912,106.741 L293.642,108.22 C293.361,107.938 293.149,107.798 292.938,107.586 C292.726,107.445 292.514,107.374 292.303,107.234 C292.091,107.163 291.88,107.092 291.598,107.092 C291.387,107.022 291.175,107.022 290.963,107.022 C290.611,107.022 290.188,107.092 289.836,107.234 C289.554,107.374 289.201,107.586 288.918,107.869 C288.708,108.079 288.496,108.432 288.285,108.785 C288.144,109.137 288.073,109.561 288.073,109.983 C288.073,110.476 288.144,110.9 288.285,111.322 C288.496,111.675 288.708,112.027 288.918,112.309 C289.201,112.522 289.554,112.733 289.836,112.874 C290.188,113.016 290.54,113.085 290.963,113.085 L291.457,113.085 C291.598,113.016 291.739,113.016 291.951,112.945 C292.091,112.945 292.303,112.874 292.444,112.803 C292.584,112.733 292.797,112.663 292.938,112.522 L292.938,111.04 L290.469,111.04 L290.469,109.279 L294.982,109.279 L294.982,113.439 C294.7,113.72 294.418,113.931 294.065,114.143 C293.713,114.354 293.361,114.496 293.008,114.567 C292.656,114.707 292.303,114.777 291.951,114.848 C291.598,114.918 291.246,114.918 290.893,114.918 M280.176,114.99 L280.176,112.874 C280.599,112.874 280.952,112.803 281.305,112.663 C281.657,112.522 281.94,112.309 282.221,112.098 C282.433,111.816 282.645,111.534 282.786,111.181 C282.927,110.829 282.997,110.407 282.997,110.054 C282.997,109.63 282.927,109.279 282.786,108.925 C282.645,108.573 282.433,108.292 282.221,108.01 C281.94,107.728 281.657,107.515 281.305,107.374 C280.952,107.234 280.599,107.163 280.176,107.163 L280.176,105.118 C280.67,105.118 281.094,105.19 281.517,105.26 C281.94,105.401 282.292,105.541 282.645,105.754 C283.068,105.964 283.35,106.247 283.701,106.528 C283.984,106.881 284.196,107.163 284.407,107.515 C284.619,107.938 284.829,108.292 284.901,108.714 C285.042,109.137 285.112,109.561 285.112,110.054 C285.112,110.476 285.042,110.9 284.901,111.322 C284.829,111.745 284.619,112.168 284.407,112.522 C284.196,112.874 283.984,113.226 283.701,113.509 C283.35,113.79 283.068,114.073 282.645,114.284 C282.292,114.496 281.94,114.707 281.517,114.777 C281.094,114.918 280.67,114.99 280.176,114.99" fill="#B52C46"/>
      <path d="M162.508,15.722 L143.966,15.722 L143.966,0.705 L198.113,0.705 L198.112,15.722 L179.57,15.722 L179.57,62.535 L162.508,62.535 z" fill="#B52C46"/>
      <path d="M252.602,44.134 C249.219,36.52 249.288,27.213 252.673,19.529 C257.749,7.825 269.17,0.775 282.002,0.493 C290.886,0.352 299.627,3.595 305.903,9.87 L296.032,22.49 C292.437,18.048 287.712,15.721 281.931,16.074 C273.33,16.497 267.196,23.688 267.268,31.796 C267.338,39.833 274.176,47.447 282.707,47.588 C288.417,47.729 293.847,44.698 296.315,40.327 L305.972,53.652 C299.839,59.926 291.379,62.887 282.919,63.028 C269.947,63.241 257.749,55.767 252.602,44.134" fill="#B52C46"/>
      <path d="M70.573,0.493 L87.775,0.493 L87.775,62.605 L70.573,62.605 z" fill="#603D94"/>
      <path d="M0.282,0.564 L17.485,0.564 L17.485,42.795 L49.281,0.564 L70.503,0.564 L23.761,62.606 L0.282,62.606 z" fill="#603D94"/>
      <path d="M121.124,62.747 C110.83,62.747 100.538,59.645 92.782,52.665 L101.524,41.032 C107.869,46.32 114.707,48.787 121.688,48.787 C123.944,48.787 125.635,48.434 126.834,47.73 C128.456,46.742 129.161,44.487 128.173,42.795 C126.692,40.186 121.124,39.269 118.444,38.634 C115.201,37.929 112.169,37.084 109.42,36.167 C100.819,33.417 94.827,27.425 95.602,17.977 C96.094,12.196 98.915,7.19 103.849,4.018 C108.222,1.199 113.791,-0.001 119.008,-0.001 C128.103,-0.001 136.775,2.256 143.896,8.036 L135.153,19.669 C131.699,17.202 127.751,15.439 123.591,14.452 C120.348,13.677 116.4,13.324 114.073,15.087 C112.593,16.144 112.029,18.259 113.016,19.81 C113.932,21.361 116.258,22.067 117.879,22.56 C119.22,22.984 120.912,23.477 123.026,23.899 C127.679,24.957 133.25,26.297 137.692,28.976 C143.191,32.36 145.869,37.507 145.588,43.922 C145.235,50.973 141.287,56.754 134.941,59.856 C130.781,61.9 125.847,62.747 121.124,62.747" fill="#603D94"/>
      <path d="M200.071,0.704 L249.634,0.704 L249.634,15.721 L216.921,15.721 L216.921,24.675 L246.532,24.675 L246.532,38.141 L216.921,38.141 L216.921,48.011 L250.056,48.011 L250.056,62.535 L200.071,62.535 z" fill="#B52C46"/>
      <path d="M10.948,96.888 L7.236,96.888 L0,79.508 L5.087,79.508 L9.092,90.083 L13.098,79.508 L18.185,79.508 z" fill="#603D94"/>
    </g>
  </g>
</svg>
